<svg width="230" height="87" viewBox="0 0 230 87" fill="none" xmlns="http://www.w3.org/2000/svg">
<g clip-path="url(#clip0)">
<path d="M108.195 16.2149C108.123 16.1255 100.83 7.27285 91.345 7.27285C85.796 7.27285 80.5446 10.2535 75.7398 16.2149L74.7634 15.422C79.8242 9.19837 85.403 6.03885 91.3569 6.03885C101.449 6.03885 108.873 15.0405 109.183 15.422L108.195 16.2149Z" fill="#3FA535"/>
<path d="M142.805 17.3773C140.305 14.365 137.475 11.6434 134.368 9.26393C129.605 5.60366 122.091 1.23399 113.476 1.23399C103.789 1.23399 94.6376 6.66478 86.2842 17.3296L85.2899 16.5547C93.8993 5.53808 103.384 -0.047699 113.488 -0.047699C122.466 -0.047699 130.236 4.47101 135.178 8.26243C138.363 10.6861 141.26 13.4685 143.811 16.5547L142.805 17.3773Z" fill="#006F9E"/>
<path d="M164.269 17.9675C161.77 14.9555 158.94 12.2358 155.832 9.86006C151.069 6.19979 143.549 1.83012 134.934 1.83012C125.241 1.83012 116.095 7.26091 107.736 17.9258L106.748 17.1508C115.357 6.13421 124.842 0.548431 134.94 0.548431C143.924 0.548431 151.694 5.06714 156.63 8.85856C159.817 11.2803 162.714 14.0628 165.263 17.1508L164.269 17.9675Z" fill="#009FE3"/>
<path d="M134.946 31.2256C124.973 31.2256 115.601 25.8127 107.099 15.1299L108.082 14.343C116.334 24.6919 125.348 29.9439 134.94 29.9439C143.454 29.9439 150.86 25.7173 155.582 22.1941C158.647 19.9085 161.443 17.2827 163.917 14.3669L164.9 15.1538C162.373 18.1497 159.51 20.8441 156.368 23.1837C151.492 26.8559 143.817 31.2315 134.934 31.2315" fill="#E94D3D"/>
<path d="M165.555 27.5355C163.684 27.5365 161.818 27.3569 159.982 26.999C153.683 25.759 147.687 22.3849 142.162 16.96L143.043 16.0599C152.73 25.598 163.53 28.4774 175.135 24.6979C180.572 22.8577 185.574 19.9174 189.829 16.0599L190.71 16.96C186.343 20.9678 181.185 24.014 175.569 25.9021C172.339 26.9799 168.959 27.5373 165.555 27.5534" fill="#D18A12"/>
<path d="M94.6971 79.3575L94.4232 77.1638C93.1558 77.746 91.7808 78.0567 90.3865 78.0758C86.183 78.0758 84.2539 75.5304 84.2539 71.0772C84.2539 67.1129 86.0401 63.9534 90.1424 63.9534C91.532 63.9599 92.9127 64.175 94.2387 64.5913L94.5066 62.3438C93.1677 62.0005 91.7923 61.8203 90.4103 61.8073C84.3075 61.8073 81.5806 65.9803 81.5806 71.4826C81.5806 76.5736 83.9622 80.2696 89.797 80.2696C91.4737 80.2836 93.1374 79.9739 94.6971 79.3575ZM108.933 73.1697C108.933 68.3708 106.337 66.4989 102.937 66.4989C98.9244 66.4989 96.4595 69.6048 96.4595 73.5154C96.4595 78.207 98.841 80.2994 102.413 80.2994C106.349 80.2994 108.921 77.1876 108.921 73.1458L108.933 73.1697ZM106.403 73.277C106.403 76.6809 104.694 78.2368 102.711 78.2368C100.276 78.2368 98.9661 76.4484 98.9661 73.2531C98.9661 70.0578 100.782 68.484 102.711 68.484C105.17 68.484 106.403 70.2724 106.403 73.2531V73.277ZM114.673 60.4481H112.291V80.0073H114.673V60.4481ZM121.633 60.4481H119.221V80.0073H121.633V60.4481ZM136.273 72.0489C136.273 68.9967 134.69 66.4512 130.915 66.4512C127.14 66.4512 124.961 69.4319 124.961 73.42C124.961 78.1057 127.158 80.2517 131.254 80.2517C132.793 80.2693 134.32 79.9858 135.749 79.4172L135.535 77.4618C134.314 78.0099 132.991 78.2943 131.653 78.2964C128.813 78.2964 127.342 76.7644 127.45 73.1995H136.148C136.198 72.8179 136.226 72.4337 136.232 72.0489H136.273ZM133.767 71.4886H127.61C127.878 69.5332 129.111 68.2217 130.849 68.2217C132.725 68.2217 133.874 69.5332 133.826 71.4886H133.767ZM151.271 81.9925C151.271 79.5781 149.664 78.1891 146.77 78.1891H144.335C142.727 78.1891 142.061 77.891 142.061 77.1399C142.071 76.8902 142.159 76.6499 142.313 76.4531C142.466 76.2563 142.678 76.1128 142.918 76.043C143.475 76.1404 144.038 76.1943 144.603 76.204C148.401 76.204 150.384 74.1116 150.384 71.2441C150.407 70.7537 150.317 70.2645 150.122 69.814C149.927 69.3635 149.632 68.9636 149.259 68.645H151.48V66.7433H146.955C146.27 66.58 145.569 66.4999 144.865 66.5049C141.15 66.5049 139.036 68.8357 139.036 71.6495C139.036 73.3366 139.673 74.7017 140.989 75.4529C140.55 75.6378 140.175 75.9465 139.909 76.3413C139.642 76.7362 139.496 77.2 139.488 77.6764C139.49 78.0954 139.615 78.5047 139.848 78.8527C140.081 79.2006 140.412 79.4717 140.798 79.6318C140.155 79.9554 139.611 80.448 139.225 81.057C138.839 81.6659 138.626 82.3684 138.607 83.0893C138.607 85.6348 140.775 87 144.198 87C148.366 87 151.265 84.8062 151.265 81.9925H151.271ZM147.973 71.4051C147.973 73.3604 146.687 74.4633 144.68 74.4633C142.674 74.4633 141.388 73.3902 141.388 71.4051C141.388 69.6167 142.644 68.2992 144.758 68.2992C146.871 68.2992 147.973 69.4498 147.973 71.4051ZM148.884 82.2846C148.884 83.918 147.3 85.0745 144.573 85.0745C142.483 85.0745 141.001 84.216 141.001 82.6363C141.031 82.1102 141.207 81.6029 141.508 81.1712C141.81 80.7395 142.226 80.4005 142.71 80.1921H146.121C147.997 80.1921 148.908 80.9969 148.908 82.2846H148.884ZM164.697 72.0966C164.697 69.0444 163.12 66.4989 159.375 66.4989C155.63 66.4989 153.421 69.4796 153.421 73.4677C153.421 78.1534 155.618 80.2994 159.708 80.2994C161.246 80.3181 162.774 80.0345 164.203 79.4649L163.989 77.5095C162.77 78.0568 161.449 78.3412 160.113 78.3441C157.273 78.3441 155.802 76.812 155.909 73.2471H164.608C164.656 72.8655 164.682 72.4813 164.685 72.0966H164.697ZM162.226 71.5362H156.028C156.296 69.5809 157.523 68.2694 159.267 68.2694C161.137 68.2694 162.292 69.5809 162.244 71.5362" fill="black"/>
<path d="M85.0875 35.7622H82.6226V53.8549H85.0875V35.7622ZM100.502 53.8549V44.5254C100.502 42.1706 99.5377 40.269 96.4892 40.269C95.4861 40.2359 94.4972 40.5143 93.6583 41.0661C92.8194 41.6179 92.1715 42.416 91.8035 43.351L91.7499 43.3212C91.9014 42.3991 91.9731 41.4657 91.9643 40.5313H89.6363V53.8549H92.0178V47.4464C92.0178 44.5015 93.6016 42.2779 95.7926 42.2779C97.5788 42.2779 98.067 43.3748 98.067 45.2586V53.8549H100.502ZM111.422 53.8012V51.7625C110.826 51.9116 110.214 51.9916 109.6 52.0009C108.099 52.0009 107.7 51.4048 107.7 49.2169V42.4091H111.422V40.5313H107.7V35.5535L105.289 36.2212V40.5313H102.562V42.4091H105.289V50.0754C105.289 52.9428 106.123 54.0635 108.861 54.0635C109.725 54.0584 110.587 53.9706 111.434 53.8012H111.422ZM124.788 45.8965C124.788 42.8383 123.204 40.2928 119.459 40.2928C115.714 40.2928 113.506 43.2735 113.506 47.2616C113.506 51.9472 115.703 54.0933 119.799 54.0933C121.337 54.1133 122.864 53.8318 124.294 53.2647L124.08 51.3094C122.858 51.8554 121.535 52.1378 120.198 52.138C117.364 52.138 115.893 50.6119 115.994 47.047H124.687C124.736 46.6654 124.764 46.2813 124.77 45.8965H124.788ZM122.305 45.3301H116.101C116.352 43.3748 117.602 42.0514 119.328 42.0514C121.204 42.0514 122.353 43.3629 122.305 45.3182V45.3301ZM134.94 40.2809C132.29 39.9888 130.921 41.8368 130.361 43.6848H130.308C130.501 42.6407 130.601 41.5813 130.605 40.5193H128.259V53.8549H130.641V48.4897C130.641 44.2273 131.981 42.1647 134.809 42.6475L134.94 40.2809ZM148.634 53.843V44.5254C148.634 42.1706 147.669 40.269 144.621 40.269C143.618 40.2359 142.629 40.5143 141.79 41.0661C140.951 41.6179 140.303 42.416 139.935 43.351L139.881 43.3212C140.033 42.3991 140.105 41.4657 140.096 40.5313H137.786V53.8549H140.167V47.4464C140.167 44.5015 141.745 42.2779 143.942 42.2779C145.728 42.2779 146.216 43.3748 146.216 45.2586V53.8549L148.634 53.843ZM162.578 53.843C162.548 52.6865 162.524 51.2677 162.524 50.0098V44.7042C162.524 42.0514 161.429 40.257 157.6 40.257C156 40.2679 154.418 40.594 152.944 41.2168L153.182 43.2794C154.41 42.5839 155.791 42.2069 157.201 42.1825C159.392 42.1825 160.119 43.1721 160.119 45.0261V46.0157C155.088 46.0157 152.111 47.8637 152.111 50.7848C152.111 52.9011 153.611 54.0814 155.808 54.0814C156.765 54.1107 157.709 53.8505 158.516 53.3348C159.323 52.819 159.957 52.0716 160.333 51.1901H160.411C160.291 52.0691 160.246 52.9564 160.274 53.843H162.578ZM160.119 47.9472C160.119 50.0396 158.672 52.1797 156.505 52.1797C155.272 52.1797 154.469 51.4584 154.469 50.3317C154.469 49.205 155.487 47.7028 160.119 47.7028V47.9472ZM173.438 53.7893V51.7505C172.842 51.8996 172.23 51.9796 171.616 51.989C170.121 51.989 169.717 51.3928 169.717 49.205V42.4091H173.438V40.5313H169.717V35.5535L167.335 36.2212V40.5313H164.578V42.4091H167.311V50.0754C167.311 52.9428 168.139 54.0635 170.883 54.0635C171.745 54.0582 172.605 53.9703 173.45 53.8012L173.438 53.7893ZM179.523 36.7577C179.522 36.5495 179.48 36.3436 179.398 36.1521C179.317 35.9605 179.198 35.7871 179.049 35.6422C178.9 35.4972 178.723 35.3836 178.529 35.308C178.336 35.2323 178.129 35.1962 177.921 35.2018C177.612 35.2089 177.313 35.3071 177.06 35.4841C176.807 35.6612 176.612 35.9091 176.499 36.1968C176.386 36.4846 176.361 36.7992 176.426 37.1012C176.492 37.4033 176.645 37.6792 176.866 37.8945C177.088 38.1097 177.368 38.2545 177.672 38.3108C177.975 38.3671 178.288 38.3324 178.572 38.2109C178.856 38.0894 179.098 37.8867 179.267 37.6281C179.436 37.3696 179.525 37.0668 179.523 36.7577ZM179.124 40.5313H176.742V53.8489H179.124V40.5313ZM194.943 46.9635C194.943 42.1945 192.347 40.2928 188.948 40.2928C184.935 40.2928 182.47 43.3987 182.47 47.3153C182.47 52.0009 184.851 54.0933 188.424 54.0933C192.353 54.0933 194.925 50.9875 194.925 46.9397L194.943 46.9635ZM192.407 47.0768C192.407 50.4808 190.698 52.0307 188.715 52.0307C186.28 52.0307 184.97 50.2423 184.97 47.047C184.97 43.8517 186.792 42.2779 188.715 42.2779C191.18 42.2779 192.407 44.0663 192.407 47.0768ZM209.137 53.831V44.5254C209.137 42.1706 208.173 40.269 205.124 40.269C204.121 40.235 203.132 40.5131 202.293 41.065C201.454 41.6169 200.806 42.4155 200.439 43.351L200.385 43.3212C200.537 42.3991 200.608 41.4657 200.6 40.5313H198.272V53.8549H200.653V47.4464C200.653 44.5015 202.231 42.2779 204.428 42.2779C206.214 42.2779 206.702 43.3748 206.702 45.2586V53.8549L209.137 53.831ZM223.082 53.831C223.082 52.6745 223.028 51.2557 223.028 49.9979V44.6923C223.028 42.0395 221.926 40.2451 218.104 40.2451C216.502 40.2566 214.918 40.5826 213.442 41.2049L213.686 43.2675C214.912 42.573 216.291 42.1959 217.699 42.1706C219.896 42.1706 220.617 43.1602 220.617 45.0142V46.0038C215.586 46.0038 212.615 47.8518 212.615 50.7729C212.615 52.8891 214.115 54.0695 216.306 54.0695C217.263 54.0988 218.207 53.8386 219.014 53.3229C219.821 52.8071 220.454 52.0597 220.831 51.1782H220.885C220.771 52.0576 220.727 52.9447 220.754 53.831H223.082ZM220.617 47.9353C220.617 50.0277 219.176 52.1678 217.003 52.1678C215.776 52.1678 214.972 51.4465 214.972 50.3198C214.972 49.1931 215.99 47.6908 220.617 47.6908V47.9353ZM229.405 34.3016H227.023V53.8608H229.405V34.3016Z" fill="black"/>
<path d="M78.4429 15.8214C78.4413 15.3998 78.3565 14.9827 78.1932 14.594C78.0299 14.2054 77.7913 13.8529 77.4914 13.557C77.1914 13.2611 76.8359 13.0276 76.4453 12.8698C76.0548 12.7121 75.637 12.6334 75.2159 12.6381C74.5892 12.6475 73.9792 12.8421 73.4627 13.1976C72.9461 13.5531 72.546 14.0535 72.3127 14.6359C72.0793 15.2183 72.0231 15.8569 72.1511 16.4712C72.2791 17.0855 72.5856 17.6483 73.0321 18.0887C73.4786 18.5292 74.0451 18.8277 74.6605 18.9467C75.276 19.0657 75.9128 18.9999 76.491 18.7576C77.0691 18.5154 77.5629 18.1074 77.9102 17.585C78.2575 17.0626 78.4428 16.449 78.4429 15.8214Z" fill="#E6007E"/>
<path d="M90.059 15.8214C90.0574 15.3998 89.9726 14.9827 89.8093 14.594C89.6459 14.2054 89.4074 13.8529 89.1075 13.557C88.8075 13.2611 88.452 13.0276 88.0614 12.8698C87.6709 12.7121 87.2531 12.6334 86.832 12.6381C86.2053 12.6475 85.5953 12.8421 85.0787 13.1976C84.5622 13.5531 84.1621 14.0535 83.9288 14.6359C83.6954 15.2183 83.6392 15.8569 83.7672 16.4712C83.8952 17.0855 84.2017 17.6483 84.6482 18.0887C85.0947 18.5292 85.6612 18.8277 86.2766 18.9467C86.892 19.0657 87.5289 18.9999 88.107 18.7576C88.6852 18.5154 89.179 18.1074 89.5263 17.585C89.8736 17.0626 90.0589 16.449 90.059 15.8214Z" fill="#F49600"/>
<path d="M111.981 15.8214C111.98 15.3998 111.895 14.9827 111.732 14.594C111.568 14.2054 111.33 13.8529 111.03 13.557C110.73 13.2611 110.374 13.0276 109.984 12.8698C109.593 12.7121 109.175 12.6334 108.754 12.6381C108.128 12.6475 107.518 12.8421 107.001 13.1976C106.485 13.5531 106.084 14.0535 105.851 14.6359C105.618 15.2183 105.562 15.8569 105.69 16.4712C105.818 17.0855 106.124 17.6483 106.571 18.0887C107.017 18.5292 107.584 18.8277 108.199 18.9467C108.814 19.0657 109.451 18.9999 110.029 18.7576C110.608 18.5154 111.101 18.1074 111.449 17.585C111.796 17.0626 111.981 16.449 111.981 15.8214Z" fill="#AFCA0B"/>
<path d="M166.519 15.8214C166.518 15.3998 166.433 14.9827 166.27 14.594C166.106 14.2054 165.868 13.8529 165.568 13.557C165.268 13.2611 164.912 13.0276 164.522 12.8698C164.131 12.7121 163.713 12.6334 163.292 12.6381C162.666 12.6475 162.056 12.8421 161.539 13.1976C161.023 13.5531 160.622 14.0535 160.389 14.6359C160.156 15.2183 160.1 15.8569 160.228 16.4712C160.356 17.0855 160.662 17.6483 161.109 18.0887C161.555 18.5292 162.122 18.8277 162.737 18.9467C163.352 19.0657 163.989 18.9999 164.567 18.7576C165.146 18.5154 165.639 18.1074 165.987 17.585C166.334 17.0626 166.519 16.449 166.519 15.8214Z" fill="#006F9E"/>
<path d="M193.848 15.8214C193.846 15.3998 193.761 14.9827 193.598 14.594C193.435 14.2054 193.196 13.8529 192.896 13.557C192.596 13.2611 192.241 13.0276 191.85 12.8698C191.46 12.7121 191.042 12.6334 190.621 12.6381C189.994 12.6475 189.384 12.8421 188.868 13.1976C188.351 13.5531 187.951 14.0535 187.718 14.6359C187.484 15.2183 187.428 15.8569 187.556 16.4712C187.684 17.0855 187.991 17.6483 188.437 18.0887C188.883 18.5292 189.45 18.8277 190.065 18.9467C190.681 19.0657 191.318 18.9999 191.896 18.7576C192.474 18.5154 192.968 18.1074 193.315 17.585C193.662 17.0626 193.848 16.449 193.848 15.8214Z" fill="#E94D3D"/>
<path d="M145.526 15.8214C145.524 15.3998 145.439 14.9827 145.276 14.594C145.113 14.2054 144.874 13.8529 144.574 13.557C144.274 13.2611 143.919 13.0276 143.528 12.8698C143.138 12.7121 142.72 12.6334 142.299 12.6381C141.672 12.6475 141.062 12.8421 140.546 13.1976C140.029 13.5531 139.629 14.0535 139.396 14.6359C139.162 15.2183 139.106 15.8569 139.234 16.4712C139.362 17.0855 139.669 17.6483 140.115 18.0887C140.561 18.5292 141.128 18.8277 141.743 18.9467C142.359 19.0657 142.996 18.9999 143.574 18.7576C144.152 18.5154 144.646 18.1074 144.993 17.585C145.34 17.0626 145.526 16.449 145.526 15.8214Z" fill="#00ACB0"/>
<path d="M26.6795 36.9127C26.6795 27.8276 22.744 22.7366 15.6052 22.7366C11.1934 22.7366 7.62102 25.1211 6.07895 28.853H5.95987C6.32873 26.9579 6.51021 25.031 6.50168 23.1003V9.22818H0V52.6626C3.50017 53.5606 7.10424 53.9876 10.7171 53.9324C20.7018 53.9324 26.6914 47.3332 26.6914 36.9127H26.6795ZM19.8563 37.5088C19.8563 45.6222 16.3435 48.7758 11.2053 48.7758C9.61018 48.8219 8.01755 48.6208 6.48382 48.1797V38.8501C6.48382 33.7592 9.08568 28.1197 13.9262 28.1197C17.9808 28.1197 19.8801 31.4521 19.8801 37.5148L19.8563 37.5088ZM40.2664 23.3387H33.7587V53.4435H40.2306L40.2664 23.3387ZM76.3829 36.9067C76.3829 27.8216 72.4533 22.7306 65.3145 22.7306C60.8967 22.7306 57.3303 25.1152 55.7525 28.847H55.6215C55.9924 26.9521 56.1759 25.0252 56.1693 23.0943V9.22818H49.6676V52.6626C53.1679 53.56 56.7719 53.987 60.3847 53.9324C70.3634 53.9324 76.3531 47.3332 76.3531 36.9127L76.3829 36.9067ZM69.518 37.5088C69.518 45.6222 66.0111 48.7758 60.8669 48.7758C59.2738 48.8226 57.683 48.6215 56.1514 48.1797V38.8501C56.1514 33.7592 58.7533 28.1197 63.5879 28.1197C67.6425 28.1197 69.5418 31.4521 69.5418 37.5148" fill="black"/>
<path d="M40.2426 15.8214C40.241 15.3998 40.1562 14.9827 39.9929 14.594C39.8296 14.2054 39.591 13.8529 39.291 13.557C38.9911 13.2611 38.6356 13.0276 38.245 12.8698C37.8545 12.7121 37.4366 12.6334 37.0156 12.6381C36.3888 12.6475 35.7789 12.8421 35.2623 13.1976C34.7458 13.5531 34.3457 14.0535 34.1124 14.6359C33.879 15.2183 33.8228 15.8569 33.9508 16.4712C34.0788 17.0855 34.3853 17.6483 34.8318 18.0887C35.2783 18.5292 35.8448 18.8277 36.4602 18.9467C37.0756 19.0657 37.7124 18.9999 38.2906 18.7576C38.8688 18.5154 39.3626 18.1074 39.7099 17.585C40.0572 17.0626 40.2425 16.449 40.2426 15.8214Z" fill="#009FE3"/>
</g>
<defs>
<clipPath id="clip0">
<rect width="230" height="87" fill="white"/>
</clipPath>
</defs>
</svg>