<?xml version="1.0" encoding="windows-1252"?>
<svg version="1.1" xmlns="http://www.w3.org/2000/svg" xmlns:xlink="http://www.w3.org/1999/xlink" x="0px" y="0px" viewBox="0 0 206.9 19.7" style="enable-background:new 0 0 206.9 19.7;" xml:space="preserve">
<g transform="translate(-0.5 0.107)">
	<path fill="#002D5A" d="M2,0.2h3.7l3.7,9.3c0.4,1.1,1,2.8,1,2.8h0.1c0,0,0.5-1.6,0.9-2.8l3.7-9.3h3.7l1.5,18.9h-3.4   L16,8.6c-0.1-1.2,0-2.9,0-2.9H16c0,0-0.6,1.8-1,2.9l-3.1,7.3h-3l-3-7.3c-0.4-1.1-1-3-1-3h0c0,0,0,1.7,0,3L3.9,19.1H0.5L2,0.2z"/>
	<path fill="#002D5A" d="M28.1,11.2l-6.3-11h3.9l3,5.6c0.6,1.2,1.1,2.6,1.1,2.5h0.1c0,0,0.5-1.4,1.1-2.5l2.9-5.6h3.9   l-6.3,11v7.9h-3.4V11.2z"/>
	<path fill="#002D5A" d="M46.3,3.2h-6.2V0.2h15.8v2.9h-6.2v15.9h-3.4V3.2z"/>
	<path fill="#002D5A" d="M66.7-0.1C72-0.2,76.4,4,76.5,9.2c0,0.1,0,0.2,0,0.3c0.1,5.4-4.1,9.9-9.5,10   c-5.4,0.1-9.9-4.1-10-9.5c0-0.2,0-0.3,0-0.5c0-5.3,4.2-9.6,9.5-9.6C66.5-0.1,66.6-0.1,66.7-0.1 M66.7,16.3c3.5,0,6.2-2.9,6.2-6.8   C73.1,6.1,70.5,3.2,67,3c-3.4-0.2-6.4,2.5-6.5,5.9c0,0.2,0,0.4,0,0.6C60.5,13.4,63.3,16.3,66.7,16.3"/>
	<path fill="#002D5A" d="M83.5,11.2l-6.3-11h3.9l3,5.6c0.6,1.2,1.1,2.6,1.1,2.5h0.1c0,0,0.5-1.4,1.1-2.5l2.9-5.6h3.9   l-6.3,11v7.9h-3.4L83.5,11.2L83.5,11.2z"/>
	<path fill="#002D5A" d="M96.1,14.3c1.3,1.2,3,1.9,4.7,2c1.4,0,2.7-0.7,2.7-2.3c0-3.4-8.9-2.8-8.9-8.6   c0-3.1,2.7-5.5,6.3-5.5c2.1-0.1,4.1,0.7,5.6,2l-1.5,2.8c-1.2-1-2.6-1.6-4.2-1.7C99.3,3.1,98,4,98,5.3c0,3.4,8.9,2.5,8.9,8.6   c0,3-2.3,5.5-6.2,5.5c-2.4,0-4.8-0.9-6.5-2.6L96.1,14.3z"/>
	<path fill="#002D5A" d="M125.3,0.1c2.4-0.1,4.8,0.7,6.7,2.2l-1,1.4c-1.6-1.2-3.6-1.9-5.6-1.9c-4.5,0-7.6,3.5-7.6,7.9   c0,4.6,3.2,8,7.4,8c2.3-0.1,4.4-1.1,5.9-2.7v-3.2h-3.2v-1.7h4.9v9h-1.7v-2.2h-0.1c-1.6,1.6-3.8,2.6-6.1,2.5c-5.1,0-9.2-4.1-9.2-9.7   c-0.1-5.2,3.9-9.5,9.1-9.7C125.1,0.1,125.2,0.1,125.3,0.1"/>
	<path fill="#002D5A" d="M137.3,0.4h5.5c1.2-0.1,2.4,0.1,3.5,0.5c1.8,0.9,2.9,2.8,2.8,4.8c0.1,2.3-1.3,4.4-3.5,5.1v0.1   c0.2,0.2,0.3,0.5,0.5,0.7l4.1,7.5H148l-4.2-7.9h-4.7v7.9h-1.8V0.4z M143.6,9.6c1.9,0.1,3.6-1.4,3.7-3.3c0-0.2,0-0.4,0-0.5   c0.1-1.3-0.5-2.6-1.7-3.3c-0.8-0.4-1.7-0.5-2.6-0.4h-3.8v7.6L143.6,9.6z"/>
	<path fill="#002D5A" d="M162.2,0.1c5.2,0,9.5,4.2,9.5,9.4c0,0.1,0,0.1,0,0.2c0.2,5.3-3.9,9.7-9.2,9.9s-9.7-3.9-9.9-9.2   c0-0.2,0-0.5,0-0.7c-0.1-5.2,4.1-9.5,9.4-9.5C162.1,0.1,162.2,0.1,162.2,0.1 M162.2,17.7c4.3-0.1,7.7-3.7,7.6-8c0,0,0-0.1,0-0.1   c0.2-4.2-3-7.8-7.2-8c-4.2-0.2-7.8,3-8,7.2c0,0.3,0,0.6,0,0.9c-0.2,4.3,3.2,7.9,7.5,8.1C162.1,17.7,162.2,17.7,162.2,17.7"/>
	<path fill="#002D5A" d="M175.6,0.4h1.9v12.2c0,3.2,2.1,5.2,5.3,5.2s5.3-1.9,5.3-5.2V0.4h1.8v12.2c0,4.1-2.9,6.8-7.1,6.8   s-7.2-2.7-7.2-6.8L175.6,0.4L175.6,0.4z"/>
	<path fill="#002D5A" d="M195.1,0.4h6.5c3-0.2,5.6,2.1,5.8,5c0,0.2,0,0.4,0,0.6c0.1,3-2.2,5.6-5.2,5.7c-0.2,0-0.4,0-0.6,0   H197v7.4h-1.8V0.4z M201.4,10.1c2.1,0.2,3.9-1.4,4.1-3.5c0-0.2,0-0.4,0-0.6c0-2.6-1.6-4-4.1-4H197v8.1L201.4,10.1z"/>
</g>
</svg>