<?xml version="1.0" encoding="UTF-8"?>
<!-- Generator: Adobe Illustrator 16.0.0, SVG Export Plug-In . SVG Version: 6.00 Build 0)  -->
<!DOCTYPE svg PUBLIC "-//W3C//DTD SVG 1.1//EN" "http://www.w3.org/Graphics/SVG/1.1/DTD/svg11.dtd">
<svg version="1.1" id="Ebene_1" xmlns="http://www.w3.org/2000/svg" xmlns:xlink="http://www.w3.org/1999/xlink" x="0px" y="0px" width="294.312px" height="283.257px" viewBox="0 0 294.312 283.257" enable-background="new 0 0 294.312 283.257" xml:space="preserve">
<path fill="#8CC2DA" stroke="#F5F5F6" stroke-width="0.8019" d="M41.204,0.195"/>
<path fill="#0098BC" d="M0.273,133.018C-1.721,101.221,7.221,77.94,26.141,50.96c20.455-29.173,47.686-37.811,81.856-43.023  c44.127-6.73,102.368-11.916,135.838,22.185c30.546,31.123,46.89,86.599,46.434,129.618  C288.836,294.671,111.048,316.466,31.7,233.957C0.543,201.555,9.353,171.958,0.273,133.018"/>
<g>
	<path fill="#FFFFFF" d="M38.487,111.963c0.435,0.436,0.783,0.87,1.133,1.393c1.304,1.652,2.086,4.787,2.611,9.487   c0.085,0.435,0.085,1.046,0.261,2.003v2.088c0,0.436,0,1.131,0.085,2.001l0.09,1.829v0.781v1.919   c0.086,2.436,0.086,1.479-0.09,4.612c-0.085,2.783-1.216,5.135-2.871,6.79l-2.438,2.175l1.743,2.002   c1.219,1.828,1.913,3.133,2.263,3.917c0.347,0.695,0.869,2.177,1.304,4.439c0.436,2.174,0.698,5.049,0.784,8.531l0.088,5.048   c0,1.218,0.174,1.479,0.26,2.438c0.349,1.565,0.609,1.217-0.956,1.305c-1.305,0.088-2.002,0.261-3.482,0.088   c-0.957,0-1.479-0.176-1.479-0.438c0-0.695,0.086-1.305,0.175-1.74c0.086-0.087,0-0.696,0.086-1.827   c0.175-1.045,0.088-2.004,0.088-2.959v-1.74c-0.088-2.699-0.436-5.399-1.307-8.098c-0.262-1.044-0.608-2.263-1.219-3.654   c-0.086-0.262-0.26-0.523-0.433-0.784c-0.176-0.349-0.262-0.609-0.352-0.871c-0.085-0.175-0.173-0.347-0.259-0.609   c-0.175-0.26-0.697-0.695-1.48-1.13c-0.436-0.263-0.871-0.35-1.133-0.35c-0.085,0-0.085,0-0.173,0.087H31.61   c-0.086,0.175-0.173,0.436-0.262,0.783c0.089,0.087,0.089,0.437,0.089,1.133c-0.089,0.783-0.173,1.566-0.089,2.264v3.48v4.874   l0.176,7.311c0,1.395,0,2.353,0.086,2.788c-0.086,0.696-0.086,1.043-0.173,1.043c0.087,0.523-0.437,0.872-1.566,0.958   c-0.262,0.088-0.611,0.088-0.872,0.088c-0.347,0.086-0.694,0.086-1.13,0.086c-0.436,0.087-0.696,0.087-0.96,0.087   c-1.042,0-1.567-0.173-1.567-0.347c-0.084-0.785,0.09-2.96,0.264-6.528c0.174-3.658,0.174-6.268,0.262-7.835   c-0.088-1.131-0.088-2.089,0-2.698v-0.609c-0.088-0.261-0.088-0.435-0.088-0.609c0-0.436,0.088-0.956,0.175-1.653   c-0.087-0.174-0.175-0.435-0.263-0.872c0-0.26,0-0.522,0.088-0.869v-0.696v-0.435c0.088-0.872,0.088-2.003,0-3.483   c0.088-1.479,0.088-3.655,0-6.701v-6.79l-0.088-4.005v-1.915v-2l-0.086-3.568c0-6.618,0-10.88,0.174-12.97   c0.088-1.916,0.261-1.22,1.654-1.57c1.219-0.171,2.262-0.26,3.221-0.26c0.521-0.086,0.956,0,1.304,0.089   c2.438,0.436,4.092,0.695,4.962,1.48C37.181,110.831,37.704,111.267,38.487,111.963z M32.655,142.515   c0.869,0,1.741-0.349,2.699-1.044c0.522-0.348,0.87-0.784,1.131-1.307c0.174-0.436,0.435-1.479,0.695-3.133   c0.262-1.654,0.262-4.091,0.262-7.139l-0.086-1.828c0-2.784-0.262-4.353-0.523-6.178c-0.087-1.047-0.348-1.918-0.871-2.525   c-0.434-1.48-0.78-2.262-0.869-2.351c-0.087-0.176-0.348-0.436-0.696-0.783c-0.261-0.35-0.522-0.609-0.611-0.697   c-0.609-0.348-1.304-0.522-1.912-0.522c-0.175,0-0.349,0.175-0.436,0.437c-0.173,0.521-0.263,1.655-0.263,3.134   c0,0.61,0.09,2.176,0.174,4.526c0.176,2.437,0.176,3.743,0.176,5.57c0.086,2.265,0.086,3.829,0,4.7l0.086,3.832v0.52v1.48v0.521   c0.088,1.482,0.263,2.351,0.524,2.699h0.259C32.481,142.515,32.568,142.515,32.655,142.515z"/>
	<path fill="#FFFFFF" d="M55.11,173.154c0-0.087,0.176-0.696,0-1.915c-0.087-1.653-0.087-4.787-0.087-10.271   c0-1.48,0-2.525-0.085-3.309c0.085-0.347,0.085-0.956,0.085-1.914c0-0.696,0-1.219-0.085-1.566   c0.085-0.263,0.085-0.783,0.085-1.655c0-5.396,0.087-9.4,0.087-14.709v-4.351c0.087-1.654,0.176-4.18,0.176-7.488v-6.354   c0-1.565,0-2.611,0.088-3.221c-0.088-0.261-0.088-0.695-0.088-1.131v-3.396v-0.436l-0.089-0.172c0-0.089,1.568-0.261,4.614-0.35   c1.828,0,5.569,0,6.526,0.089c0.352-0.089,0.96-0.089,1.742-0.089c0.784,0.089,1.305,0.176,1.568,0.176   c0.869,0.085,1.393,0.26,1.479,0.346l0.086,0.089v0.173l0.175,0.437v0.175c0,0.173,0,0.347,0.087,0.608   c0.088,0.26,0.088,0.436,0.088,0.521v0.61c0,1.132-0.088,2.438-0.263,2.438l-0.087,0.087l-0.522,0.174H70.17   c-0.262,0.086-0.521,0.086-0.698,0.086h-1.738c-0.436,0-0.959,0.088-1.654,0.176c-2.002-0.088-4.613-0.176-4.7-0.262v0.174   c0,0.177-0.09,0.263-0.174,0.349c-0.089,0.436,0.084,0.957,0,1.133c0.174,0.608,0,1.131,0,2.002c0,0.262,0,0.695-0.089,1.305   l-0.086,15.407c0.175,3.309,0,4.353,0.086,7.139h1.22c0.261,0,3.045,0,3.479-0.087h1.135c0.695,0,1.217,0.087,1.65,0.348   c0.176,0.086,0.351,0.522,0.438,1.305v0.436c0,0.958,0.088,1.219,0.088,2.262v0.436c-0.088,0.87-0.262,1.306-0.525,1.306   c-0.434,0.175-1.129,0.262-1.999,0.262h-4.44c-0.695,0-0.956-0.174-1.131,0.174c-0.087,0.263,0.086,0.87,0,1.22   c-0.087,0.607-0.173,2.176-0.173,2.96v5.483c0,0.347,0,0.784-0.089,1.394v7.659c0.437-0.087,0.348-0.087,1.307-0.087   c0.956,0,3.915,0,4.176-0.087h1.221c0.521,0.087,0.871,0.087,0.957,0.087h3.568c0.434,0.087,0.61,1.045,0.61,2.959   c0,2.002-0.088,3.046-0.349,3.046c-0.437,0.261-1.045,0.349-1.741,0.349h-0.869c-0.35-0.088-0.784-0.088-1.131-0.088h-0.61   c-0.609-0.087-4.006-0.087-5.571-0.087H58.94c-0.261,0.087-0.696,0.087-1.307,0.087c-0.782,0-1.739-0.173-2.437-0.608v-0.173   c-0.087-0.176-0.087-0.263-0.087-0.351V173.154z"/>
	<path fill="#FFFFFF" d="M89.841,120.579c-0.086,6.354-0.174,10.185-0.174,11.49c0,0.696,0,1.74-0.086,3.22v3.221v1.307   c0.086,0.696,0.086,1.132,0.086,1.395v0.608c0,1.652,0.088,2.698,0.174,3.307c-0.086,1.828-0.174,2.96-0.174,3.394v3.224v5.916   c0,1.306,0,2.351,0.088,2.961v0.958c-0.088,0.435-0.088,0.783-0.088,1.044v0.521c-0.086,0.437-0.086,1.132-0.086,1.914v0.698v2.264   c-0.088,0.435-0.088,1.132-0.088,1.913c0,1.133,0.174,1.828,0.088,2.264c0,0.785-0.088,1.307-0.176,1.565   c0.088,0.088,0.088,0.264,0.088,0.437v0.088c-0.174,0.261-0.523,0.348-0.956,0.348h-0.609c-0.783,0-1.568,0-2.089,0.088   c-0.784-0.263-1.221-0.436-1.308-0.523c-0.349-0.437-0.349-1.74-0.349-3.742v-5.135c0-0.349,0-0.958-0.086-1.827v-2.178   c0.086-0.61,0.086-1.743,0.086-3.219v-1.569v-1.652v-3.57v-3.917V145.3v-5.919v-7.4v-3.22c0-1.913,0-3.307,0.089-4.262v-2.267   v-10.705c0-0.521,0.868-0.782,3.045-0.782h2.698C90.015,110.917,89.929,114.226,89.841,120.579z"/>
	<path fill="#FFFFFF" d="M108.294,113.268c0.086,0.263,0.175,0.521,0.263,0.696c0.085,0.262,0.259,0.608,0.433,1.219   c0.09,0.609,0.261,1.045,0.352,1.306c0.084,0.435,0.346,1.219,0.693,2.263c0.088,0.175,0.176,0.61,0.351,1.395   c0.173,0.781,0.347,1.392,0.435,2.001c0.088,0.262,0.521,1.565,1.131,3.743l1.219,4.787c0,0.087,0.175,0.782,0.521,2.002   l0.871,2.959c0.784,2.353,1.22,3.917,1.305,4.789c0.088,0.869,0.262,1.913,0.698,3.045c0.088,0.522,0.348,1.219,0.608,2.092   l0.523,1.478c2.262,7.051,3.566,10.532,3.916,10.532l0.173-1.828c0-0.088,0-0.26,0.088-0.522v-0.608   c0-0.176-0.088-0.522-0.174-0.959c0.086-0.521,0.086-1.479,0.086-2.784c-0.086-0.697-0.086-1.74-0.086-3.22v-2.177   c-0.087-1.045-0.087-1.828-0.087-2.438l-0.086-2.35c0-0.26,0-0.695-0.087-1.218c-0.088-0.522-0.088-0.959-0.088-1.219   l-0.696-23.067c0-0.347,0-0.61-0.089-0.784c0-0.173,0-0.435,0.089-0.782c0-0.437,0-0.696,0.087-0.871v-1.393   c0-0.347,0.434-0.607,1.306-0.783c0.087-0.088,0.348-0.088,0.608-0.088c0.089,0,0.698,0.088,1.741,0.264   c0.872,0,1.394,0.261,1.48,0.693c0.087,0.089,0.087,0.35,0.087,0.698c0,0.348-0.087,0.608-0.174,0.871   c0.174,0.956,0.261,1.74,0.261,2.437c0.523,20.542,0.783,30.986,0.783,31.335c0,0.262,0,0.523,0.087,0.957v0.873   c0,0.695-0.087,1.216-0.174,1.651c0.087,0.436,0.087,1.133,0.087,2.091c0,0.261-0.087,0.783-0.175,1.479   c0.088,0.871,0.175,2.089,0.175,3.743v1.827c-0.087,0.784-0.087,1.306-0.087,1.743c0,1.564,0,2.696,0.087,3.479v3.309   c0.087,0.348,0.087,0.869,0.087,1.48c0,0.605,0,1.129-0.087,1.393v0.435v1.133c0,0.348,0,0.609,0.087,0.782   c-0.087,0.607-0.174,1.044-0.436,1.479c0.089,0,0.089,0,0.089,0.088c0,0.174-0.176,0.261-0.523,0.348h-1.132h-0.698   c-0.694-0.087-1.389-0.26-2.087-0.522c-0.262-0.088-0.436-0.261-0.695-0.521c-0.264-0.264-0.438-0.696-0.61-1.132   c-0.263-0.521-0.437-0.958-0.521-1.219c-0.176-0.349-0.35-0.87-0.609-1.48c-0.262-0.696-0.351-1.132-0.436-1.394l-1.308-3.828   l-1.303-3.57l-1.22-3.395l-1.395-3.742c-0.433-1.131-1.043-3.047-1.825-5.746l-0.351-1.217c-0.259-0.872-0.435-1.48-0.695-1.916   c0-0.261-0.088-0.696-0.26-1.306c-0.176-0.609-0.262-1.045-0.262-1.305c-0.088-0.262-0.177-0.61-0.261-0.957   c-0.175-0.349-0.263-0.608-0.351-0.871c-0.084-0.262-0.084-0.521-0.174-0.696l-1.045-4.441l-0.174-0.521   c-0.085,0-0.262,0.872-0.348,2.701v4.264c0,1.827,0,3.221,0.086,4.177c-0.26,3.918-0.348,9.314-0.348,16.105   c-0.086,7.138-0.086,11.141-0.172,12.011c0,0.087-0.351,0.175-1.131,0.175c-0.872,0-1.83-0.088-2.962-0.175   c-1.131-0.175-1.219-0.349-1.219-0.521c-0.085-0.349-0.085-0.958-0.085-1.829c0-1.131,0-1.914-0.09-2.522   c0-0.088,0-0.176,0.09-0.349v-0.436v-0.262v-0.436c0.085-0.173,0.085-0.347,0.173-0.435c-0.088-0.263-0.088-0.696-0.088-1.218   c0-0.524,0-0.872,0.088-1.133l0.175-27.593c0.086-1.132,0.086-2.784,0.086-5.136c0.087-0.609,0.087-1.569,0.087-2.697   c0.089-0.263-0.087-0.61-0.087-1.047v-1.132v-0.695v-1.74v-0.957v-1.306v-2.525c0-0.26,0-0.61-0.086-1.044v-0.957   c0-0.785,0.173-1.743,0.173-2.96c-0.087-1.131-0.087-2.088-0.087-2.785c0-0.175,0-0.262,0.087-0.262v-0.087   c0-0.262,0-0.521,0.87-0.61c0.263-0.086,0.609-0.174,1.132-0.174h1.307c1.044,0.348,1.653,0.611,1.827,0.871   C108.12,112.658,108.208,112.92,108.294,113.268z"/>
	<path fill="#FFFFFF" d="M139.977,134.943v-3.398v-2.087v-2.089v-4.092c-0.087-0.435-0.087-0.957-0.087-1.74   c0-1.045,0-1.829,0.087-2.263v-3.568v-5.571c0-0.26,0.261-0.435,0.874-0.609h0.258c0.174,0,0.523,0,0.959-0.09   c0.435-0.084,0.696-0.084,0.958-0.084h0.348h0.781h0.698c0.695,0,1.219,0.084,1.656,0.174c1.476,0.261,2.609,0.435,3.305,0.609   c1.131,0.173,2.089,0.435,2.787,0.782c0.608,0.176,1.129,0.521,1.652,1.046c0.609,0.436,0.957,1.045,1.217,1.653   c0.438,0.782,0.785,1.741,0.961,2.697c0.085,0.262,0.261,0.697,0.347,1.132c0.087,0.697,0.175,1.133,0.175,1.393   c0.088,0.61,0.26,1.741,0.346,3.395c0.089,0.785,0.174,2.09,0.263,3.918c0,0.437,0,1.219,0.088,2.262v2.438   c-0.088,1.13-0.262,2.959-0.351,5.657l-0.258,2.873c-0.263,0.956-0.435,1.83-0.524,2.438c-0.085,0.26-0.261,0.608-0.435,1.044   c-0.174,0.435-0.348,0.783-0.436,1.045c-0.261,0.435-0.609,0.782-1.131,1.045c-0.262,0.347-0.609,0.693-1.131,1.13l-1.481,0.958   c-0.435,0.262-0.608,0.522-0.608,0.61c0,0.085,0.174,0.173,0.521,0.349l1.131,0.609c0.438,0.175,0.696,0.346,0.783,0.434   c0.436,0.262,0.874,0.782,1.395,1.479c0.261,0.524,0.609,1.307,0.871,2.351c0.346,1.393,0.521,2.438,0.61,3.135   c0.086,0.695,0.172,1.218,0.172,1.651c0,0.089,0,0.349,0.087,0.783v0.873c0.088,0.085,0.088,0.172,0.088,0.435v0.347   c-0.088,0.176-0.088,0.349-0.088,0.436c0,0.263,0,0.436,0.088,0.523c-0.088,0.088-0.088,0.261-0.088,0.435v0.609   c-0.087,0.262-0.087,0.437-0.087,0.608v1.219c-0.086,0.263-0.086,0.696-0.086,1.308c-0.086,0.781-0.176,1.394-0.176,1.738v0.35   c-0.085,0.261-0.085,0.523-0.175,0.783c-0.086,0.262-0.086,0.522-0.173,0.784c-0.087,0.173-0.087,0.349-0.087,0.522   c-0.262,0.605-0.436,1.129-0.521,1.566c-0.35,0.782-0.785,1.394-1.219,1.827c-1.22,1.306-3.31,2.004-6.182,2.177   c-0.522,0.087-1.306,0.087-2.438,0.087c-0.26-0.087-0.783-0.087-1.479-0.087c-0.698,0-1.218,0-1.566,0.087   c-0.609-0.087-1.395-0.174-2.524-0.174c-0.087-0.086-0.176-0.262-0.263-0.523c0.087-0.347,0.176-0.781,0.176-1.305v-1.045v-0.609   c-0.089-0.348-0.176-0.608-0.176-0.872c0-0.171,0-0.435,0.087-0.693v-0.609v-2.09v-0.351v-1.13c0-0.347,0-0.61-0.087-0.869v-1.305   c0-0.61,0-0.958-0.086-1.221c0.086-0.347,0.086-0.783,0.086-1.393c0-0.086,0-0.175,0.087-0.261v-0.436v-0.261   c-0.087-0.174-0.087-0.351-0.087-0.437c0-0.087,0-0.346,0.087-0.695c0-0.35,0-0.609,0.089-0.784   c-0.089-0.435-0.176-0.695-0.176-0.782s0-0.175,0.087-0.262v-0.347v-0.872v-1.653v-2.698c0-1.133,0-2.003,0.089-2.609   c-0.089-0.265-0.089-0.784-0.089-1.396v-1.393v-0.521v-1.132c0.089-0.435,0.089-0.871,0.089-1.132   c-0.089-0.61-0.089-1.478-0.089-2.698V134.943z M151.815,158.965c-0.174-1.739-0.433-3.394-1.131-4.699   c-0.174-0.521-0.437-0.956-0.871-1.393c-0.436-0.435-0.784-0.609-1.132-0.697c-1.307-0.521-2.173-0.782-2.785-0.782h-0.087   c-0.173,0.086-0.262,1.393-0.262,3.743c-0.086,2.349-0.086,5.223-0.086,8.528c0,3.222,0,5.486-0.088,6.791   c0.088,0,0.348,0.085,0.959,0.174h0.785l0.78-0.089c0.783-0.171,1.393-0.523,1.828-0.955c0.695-0.609,1.132-1.48,1.392-2.524   c0.438-1.22,0.697-2.786,0.697-4.7V158.965z M146.071,117.445v2.523v0.523c0,0.609-0.089,1.395-0.175,2.438   c0,0.261,0,0.696,0.086,1.305v1.306v0.697c0,1.479,0,2.609-0.086,3.396c-0.087,3.395-0.175,5.22-0.26,5.482   c0,0.086,0,0.261,0.085,0.521v0.437c0,0.347,0,0.783-0.085,1.393c-0.089,0.609-0.089,0.957-0.089,1.218v2.526   c0,0.608,0,1.304,0.089,1.912c0.085,0.61,0.085,0.958,0.085,1.22h0.175c0.437,0,0.872-0.086,1.307-0.262   c0.608-0.26,1.046-0.609,1.305-0.87c0.61-0.435,1.046-0.957,1.393-1.74c0.438-0.522,0.958-1.307,1.567-2.438   c0.435-2.09,0.697-3.479,0.781-4.179c0.088-0.173,0.088-0.433,0.176-0.782v-0.87v-1.915v-2.177c0-0.608-0.088-1.565-0.176-2.697   v-1.221c-0.084-0.607-0.084-0.956-0.084-1.216c0-0.264-0.088-0.958-0.176-2.004c-0.087-1.045-0.174-1.826-0.261-2.264   c-0.087-0.347-0.087-0.782-0.173-1.218c-0.088-0.434-0.173-0.783-0.173-0.87c-0.089-0.263-0.089-0.521-0.089-0.785v-0.26   c-0.872-0.869-1.394-1.305-1.567-1.393c-0.608-0.262-1.132-0.347-1.742-0.347c-0.173-0.088-0.521-0.088-0.957-0.088   c-0.435,0-0.782,0-1.045,0.088C145.982,115.618,145.982,116.488,146.071,117.445z"/>
	<path fill="#FFFFFF" d="M175.229,110.745c0,0.261,0,0.433,0.087,0.521v0.434c0.087,0.263,0.087,0.437,0.087,0.611   c-0.087,1.652-0.174,3.307-0.174,5.134v3.656v1.916v1.566v0.87v0.696v1.741v0.609c0.087,0.608,0.174,1.74,0.174,3.309   c0.088,2,0.088,5.569,0.088,10.618c0,1.653,0.087,3.395,0.087,5.309v1.219v0.785v5.745c0.086,0.434,0.086,1.132,0.086,1.914   c0,0.87-0.086,1.565-0.173,2.001c0.087,1.655,0.173,2.873,0.173,3.83v2.7l0.087,3.308h1.393h1.393c0.697,0,1.132,0,1.393-0.087   c0.783,0,1.221-0.089,1.306-0.175c0.696,0.086,1.653,0.086,2.785,0.086h0.871c0.347-0.086,0.609-0.086,0.784-0.086   c0.956,0,1.565,0.086,1.916,0.262c0.259,0,0.349,0.694,0.349,2.175v0.436c0,1.306-0.09,2.698-0.349,2.698   c-0.262,0-0.524,0.087-0.96,0.263h-1.479c-0.433,0.086-1.306,0.086-2.437,0.086h-1.827h-1.308h-0.782   c-0.262-0.086-0.697-0.086-1.307-0.086h-0.523c-0.344,0.086-0.781,0.086-1.217,0.086h-0.521h-0.522h-0.959   c-0.521,0-1.131,0-1.742,0.087h-1.129h-0.609c-0.436-0.087-0.61-0.349-0.61-0.784v-0.869V171.5   c-0.087-0.174-0.087-0.435-0.087-0.784c0-0.26,0.087-0.783,0.175-1.564c-0.088-0.784-0.088-1.829-0.088-3.221   c-0.087-0.785-0.087-2.091-0.087-3.744v-4.004c0-1.654,0.087-2.96,0.175-3.829c-0.088-0.523-0.088-1.219-0.088-2.178   c-0.087-0.957-0.087-1.566-0.087-1.827c0.087-0.782,0.087-2.088,0.087-3.918v-8.181c0-0.523,0-1.308,0.088-2.351v-2.436   c0-1.047,0-1.83-0.088-2.439c0.088-0.783,0.088-1.915,0.088-3.395c0-0.782,0-1.828,0.087-3.131v-2.962v-3.744v-1.479v-1.219   c-0.087-0.435-0.087-0.869-0.087-1.131c0.087-0.956,0.176-1.565,0.176-1.827l0.172-1.392v-0.176v-0.175   c0-0.26,0.35-0.435,0.958-0.435c0.696-0.085,1.132-0.174,1.392-0.174c0.35,0,0.609,0,0.784,0.089c0.959,0,1.742,0.26,2.003,0.694   V110.745z"/>
	<path fill="#FFFFFF" d="M219.012,171.239c-0.087-0.783-0.175-1.479-0.175-1.914c0-0.436-0.176-0.784-0.087-1.046   c-0.089-0.957-0.349-2.872-0.609-5.918s-0.435-4.702-0.521-5.049c-0.523-0.087-1.653-0.262-3.396-0.349   c-0.087,0-0.435,0-1.133-0.088H211.7h-0.696c-0.262,0-0.61,0-1.132-0.086h-0.957h-0.785c-0.348,0.086-0.608,0.086-0.783,0.086   c-1.479,0-2.35,0.088-2.438,0.175c-0.085,0.088-0.174,0.435-0.348,1.132c0,0.782-0.174,1.655-0.174,2.612   c-0.175,1.043-0.175,1.653-0.26,1.913c-0.088,0.436-0.176,0.957-0.35,1.655c-0.175,0.782-0.26,1.305-0.347,1.652v0.524   c0,0.782-0.088,1.739-0.351,2.785c-0.26,2.785-0.609,4.873-1.22,6.354c-0.521,0.175-1.042,0.262-1.478,0.262h-1.133   c-1.652,0-2.438-0.175-2.522-0.61v-0.174c0-0.261,0.085-0.87,0.172-1.739c0.176-0.785,0.263-1.395,0.263-1.742   c0.26-1.48,0.609-3.829,0.869-6.965c0.351-3.308,0.609-5.655,0.871-7.137c0.09-0.609,0.175-1.394,0.348-2.351   c0.263-0.957,0.351-1.74,0.438-2.177l0.347-2.35l0.522-3.133c0.174-0.609,0.348-1.655,0.436-3.046c0-0.261,0.088-0.696,0.174-1.395   l0.347-1.479l0.437-2.785c0.871-6.354,2.002-10.184,3.135-16.016c0.086-0.435,0.174-1.046,0.35-1.828   c0.084-0.783,0.172-1.307,0.259-1.479c0.871-4.091,2.178-6.964,2.524-9.054c0.174-0.347,0.521-0.606,1.046-0.781   c0.435-0.265,0.348-0.349,2.001-0.349c2.264,0,4.525,0.523,7.224,1.565c0.437,1.395,0.697,2.613,0.697,3.743v0.522   c0.172,0.523,0.437,1.219,0.521,2.175c0,0.263,0.089,0.61,0.174,1.221c0.088,0.61,0.088,1.044,0.088,1.306l0.172,2.872   c0.091,1.045,0.177,1.915,0.177,2.524c0.173,0.609,0.259,1.394,0.259,2.522c0.091,0.698,0.177,1.655,0.177,2.788l0.261,4.178   l0.26,2.958c0.263,3.744,0.61,6.791,0.871,9.228l0.782,6.181c0.176,1.653,0.349,3.219,0.525,4.7   c0.261,2.175,0.434,3.394,0.434,3.743v0.349c0,0.957,0.088,2.176,0.348,3.741c0.435,3.57,0.349,4.265,0.784,8.271v0.434   c0,0.697,0.174,1.046,0.087,1.307c-0.087,0.175-0.347,0.262-0.871,0.437c-0.434,0.086-0.869,0.172-1.565,0.26   c-0.35,0.175-0.96,0.262-1.132,0.262c-1.305,0-1.829-0.262-1.829-0.783v-0.088C219.271,174.81,219.012,173.329,219.012,171.239z    M213.267,150.959h1.217c0.61,0,0.958,0,1.222-0.088l1.305-0.088l-0.176-3.656c-0.085-0.521-0.173-1.652-0.259-3.48   c0-0.262,0-0.695-0.089-1.307v-1.392c0-0.089-0.086-1.044-0.262-3.048c0-0.693-0.086-1.739-0.259-3.22l-0.698-5.833   c-1.131-9.922-0.956-8.702-1.653-12.882c-0.086-0.436-0.694-0.348-0.87-0.521c-0.088,0-0.436,1.305-0.697,2.001l-0.608,1.743   c-0.263,0.434-0.522,1.565-0.87,3.306c-1.132,5.483-1.915,8.53-2.438,12.708l-0.608,4.789c-0.261,1.652-0.435,2.523-0.435,2.609   c0,0.088,0,0.176,0.087,0.263v0.26c-0.087,0.262-0.087,0.523-0.175,0.785c-0.087,0.262-0.087,0.521-0.175,0.695   c0,0.174,0,0.263-0.086,0.35c0,0.173-0.087,0.955-0.35,2.436c-0.261,1.479-0.346,2.525-0.346,2.96v0.348   c1.131,0.263,2.263,0.351,3.306,0.351c0.176-0.088,0.523-0.088,0.959-0.088h1.131H213.267z"/>
	<path fill="#FFFFFF" d="M257.311,120.146c0,0.261,0.173,1.217,0.173,2.959v0.696v1.391c0,0.61,0,1.047,0.088,1.307   c0,0.436,0,0.957,0.089,1.742v0.694c0,0.263,0,0.784,0.085,1.394l-0.085,1.481c0.085,0.26,0.085,0.781,0.175,1.392v1.392   l-0.09,2.874c0,2.785,0.09,5.048,0.09,6.79c0,0.696,0,1.218-0.09,1.739v3.309c0.09,0.436,0.09,1.131,0,2.175v0.959   c0,0.26,0,0.696-0.085,1.478c-0.089,0.698-0.089,1.133-0.089,1.395l-0.088,2.611c-0.088,2.351-0.259,4.352-0.521,6.005   l-0.609,2.613c-0.175,0.521-0.525,1.306-0.959,2.35c-0.87,1.305-1.393,2.089-1.479,2.176c-0.088,0.261-0.349,0.522-0.696,0.957   c-0.438,0.262-0.698,0.609-0.871,0.871c-0.175,0.174-0.785,0.609-1.916,1.305c-1.48,0.697-3.046,1.132-4.699,1.132h-0.175   c-1.132,0-2.001-0.086-2.699-0.261c-0.694-0.174-1.478-0.522-2.35-1.044c-0.87-0.608-1.653-1.48-2.262-2.699   c-0.521-1.394-1.132-3.047-1.654-5.049c-0.262-1.391-0.523-2.524-0.609-3.48c-0.087-0.261-0.175-0.87-0.262-1.916   c-0.087-1.043-0.173-1.826-0.263-2.438c-0.346-3.566-0.521-7.396-0.521-11.488c-0.086-8.357-0.26-15.232-0.349-22.632l-0.176-8.616   v-1.219c-0.085-0.523-0.085-0.871-0.085-1.132c0-0.436,0-0.784,0.085-1.044l-0.085-1.395c0-0.172,0.523-0.261,1.479-0.436   c0.088,0,0.522,0.088,1.133,0.175c0.609,0.089,1.394,0.175,1.827,0.35h0.35c0.608,0,0.955,0.261,0.87,0.694   c0,0.088,0.085,1.655,0.174,4.875v1.218v1.568v0.784v8.878c0,0.435,0.086,1.131,0,2.086c0.086,0.871,0.086,1.569,0.086,2.004   c0,0.437,0,1.131-0.086,2.089c-0.089,0.959-0.089,1.74,0,2.265v0.609c0,0.261,0,0.782,0.086,1.393l-0.086,1.391v0.697l0.174,4.266   c0.173,3.221,0.26,5.921,0.436,7.922c0.086,1.305,0.086,2.522,0.174,3.655c0.085,0.783,0.174,1.393,0.174,1.655   c0,0.087,0.087,0.346,0.175,0.783c0.087,0.347,0.175,0.607,0.087,0.782v0.261c0,0.175,0,0.436,0.088,0.697   c0.085,0.26,0.085,0.435,0.085,0.521c0.086,0.174,0.086,0.437,0.175,0.697c0.088,0.262,0.088,0.434,0.088,0.521l0.26,1.393   c0.088,0.524,0,0.786,0,0.872c0.264,1.305,0.609,2.176,0.869,2.61c0.696,0.959,1.568,1.394,2.7,1.394   c0.261,0,0.608-0.088,1.218-0.174c0.609-0.174,1.306-0.522,1.916-1.133c1.132-1.131,1.741-1.827,1.914-2.088   c0.348-0.784,0.609-1.742,0.869-3.048c0-0.085,0-0.26,0.09-0.436v-0.695c0.173-2.003,0.261-4.354,0.346-7.137v-3.657v-2.176v-1.74   l0.09-2.263v-1.132v-1.917v-1.564v-1.133v-2.352c0-2.783,0-5.656-0.09-10.618c0-3.394-0.085-5.918-0.085-7.746   c0-0.871,0-1.567,0.085-2.09c0-2.001-0.085-3.48,0.09-5.311c0-0.085,0.085-0.172,0.26-0.261c0.173-0.086,0.609,0.089,0.695,0.089   h0.088h1.393l0.698,0.087c0.956-0.087,1.74-0.087,1.74,0C257.136,111.527,257.225,117.532,257.311,120.146z"/>
</g>
<g>
	<path fill="#FFFFFF" d="M101.181,205.089c0.491,0.493,0.739,1.083,0.739,1.771c0,0.706-0.248,1.306-0.739,1.796   c-0.492,0.493-1.084,0.739-1.771,0.739c-0.703,0-1.304-0.246-1.796-0.739c-0.494-0.49-0.739-1.09-0.739-1.796   c0-0.688,0.245-1.277,0.739-1.771c0.492-0.493,1.093-0.737,1.796-0.737C100.097,204.352,100.688,204.596,101.181,205.089z"/>
	<path fill="#FFFFFF" d="M118.949,194.094c0.818,0.298,1.587,0.753,2.312,1.365l-1.896,2.62c-0.929-0.704-1.864-1.059-2.813-1.059   c-0.985,0-1.729,0.362-2.229,1.088c-0.501,0.724-0.755,1.896-0.755,3.51c0,1.561,0.254,2.667,0.755,3.317s1.225,0.978,2.175,0.978   c0.5,0,0.956-0.079,1.364-0.239c0.408-0.156,0.901-0.412,1.476-0.767l1.924,2.732c-1.466,1.169-3.131,1.755-4.987,1.755   c-1.507,0-2.808-0.32-3.904-0.962c-1.095-0.64-1.938-1.54-2.533-2.701c-0.596-1.162-0.892-2.523-0.892-4.084   c0-1.562,0.296-2.945,0.892-4.153c0.595-1.207,1.438-2.15,2.533-2.829c1.097-0.679,2.369-1.018,3.821-1.018   C117.209,193.647,118.13,193.797,118.949,194.094z"/>
	<path fill="#FFFFFF" d="M139.88,195.725c1.282,1.384,1.925,3.32,1.925,5.812c0,1.579-0.292,2.959-0.879,4.138   c-0.585,1.181-1.422,2.096-2.509,2.746c-1.086,0.65-2.374,0.975-3.859,0.975c-2.249,0-4.019-0.692-5.311-2.077   c-1.293-1.384-1.937-3.319-1.937-5.81c0-1.58,0.293-2.959,0.878-4.14c0.586-1.179,1.422-2.095,2.51-2.746   c1.086-0.65,2.372-0.975,3.859-0.975C136.823,193.647,138.6,194.34,139.88,195.725z M132.551,198.01   c-0.447,0.752-0.669,1.918-0.669,3.498c0,1.615,0.219,2.797,0.653,3.539c0.439,0.745,1.11,1.115,2.022,1.115   c0.893,0,1.56-0.377,2.005-1.129c0.448-0.751,0.671-1.918,0.671-3.497c0-1.619-0.219-2.796-0.656-3.54   c-0.436-0.743-1.11-1.115-2.02-1.115C133.664,196.881,132.997,197.258,132.551,198.01z"/>
	<path fill="#FFFFFF" d="M161.733,195.725c1.282,1.384,1.923,3.32,1.923,5.812c0,1.579-0.294,2.959-0.881,4.138   c-0.584,1.181-1.42,2.096-2.506,2.746c-1.088,0.65-2.374,0.975-3.861,0.975c-2.248,0-4.019-0.692-5.309-2.077   c-1.291-1.384-1.938-3.319-1.938-5.81c0-1.58,0.295-2.959,0.879-4.14c0.586-1.179,1.423-2.095,2.507-2.746   c1.087-0.65,2.375-0.975,3.861-0.975C158.675,193.647,160.451,194.34,161.733,195.725z M154.4,198.01   c-0.444,0.752-0.665,1.918-0.665,3.498c0,1.615,0.215,2.797,0.652,3.539c0.438,0.745,1.111,1.115,2.021,1.115   c0.892,0,1.562-0.377,2.007-1.129c0.446-0.751,0.668-1.918,0.668-3.497c0-1.619-0.217-2.796-0.654-3.54   c-0.436-0.743-1.11-1.115-2.021-1.115C155.518,196.881,154.848,197.258,154.4,198.01z"/>
	<path fill="#FFFFFF" d="M184.364,195.711c0.909,1.377,1.366,3.298,1.366,5.767c0,1.525-0.239,2.887-0.71,4.086   c-0.475,1.198-1.159,2.138-2.051,2.814c-0.89,0.679-1.933,1.017-3.122,1.017c-1.486,0-2.685-0.51-3.597-1.532v6.773l-4.401,0.473   v-20.987h3.874l0.224,1.644c0.576-0.722,1.234-1.258,1.979-1.603c0.742-0.341,1.504-0.515,2.283-0.515   C182.068,193.647,183.454,194.338,184.364,195.711z M181.16,201.536c0-1.748-0.196-2.958-0.587-3.638   c-0.389-0.679-0.977-1.018-1.758-1.018c-0.502,0-0.969,0.149-1.405,0.446c-0.438,0.298-0.823,0.725-1.159,1.283v6.242   c0.597,0.874,1.348,1.31,2.259,1.31C180.276,206.162,181.16,204.619,181.16,201.536z"/>
</g>
<g>
	<g>
		<path fill="#FFFFFF" d="M134.286,76.896c-0.297,0-0.557-0.01-0.776-0.031c-0.831-0.076-1.729-0.116-2.681-0.162    c-3.64-0.172-8.173-0.385-14.471-2.619c-4.975-1.766-14.961-9.215-16.079-10.333c-0.579-0.577-0.579-1.517-0.001-2.095    c0.574-0.58,1.516-0.581,2.094-0.005c0.952,0.949,10.68,8.114,14.977,9.639c5.887,2.087,10.176,2.289,13.621,2.453    c0.981,0.047,1.911,0.09,2.811,0.172c2.448,0.228,12.912-1.412,14.82-2.072c3.039-1.048,25.841-10.387,31.705-18.334    c0.488-0.658,1.413-0.799,2.074-0.312c0.657,0.485,0.799,1.415,0.312,2.072c-7.032,9.526-32.874,19.29-33.126,19.378    C147.687,75.295,138.111,76.896,134.286,76.896z"/>
	</g>
	<g>
		<path fill="#FFFFFF" d="M160.018,94.181c-5.41,0-15.749-1.222-17.226-1.401c-7.454-0.899-21.041-2.877-28.26-6.012    c-2.64-1.147-14.426-23.188-14.533-23.405c-0.364-0.732-0.066-1.623,0.664-1.986c0.736-0.367,1.624-0.066,1.988,0.665    c2.784,5.586,11.493,20.48,13.188,22.062c11.959,5.115,42.206,7.414,45.78,7.13c1.222-1.199,4.438-6.415,9.908-17.72    c4.477-9.246,8.029-17.548,8.539-19.499c0.204-0.79,1.019-1.267,1.807-1.06c0.793,0.208,1.268,1.017,1.06,1.809    c-0.978,3.737-15.361,35.815-19.762,39.033C162.797,94.074,161.625,94.181,160.018,94.181z"/>
	</g>
	<g>
		<path fill="#FFFFFF" stroke="#2A9EB8" stroke-width="2.9638" stroke-linecap="round" stroke-linejoin="round" d="M135.229,74.319"/>
	</g>
	<g>
		<path fill="#FFFFFF" d="M124.479,75.19c-0.288,0-0.576-0.083-0.831-0.255c-0.676-0.459-0.854-1.379-0.394-2.058    c2.532-3.734,6.177-10.962,8.839-16.24l0.476-0.942c0.37-0.733,1.258-1.028,1.992-0.656c0.729,0.369,1.023,1.26,0.655,1.989    l-0.476,0.945c-2.851,5.646-6.395,12.677-9.034,16.567C125.421,74.965,124.953,75.19,124.479,75.19z"/>
	</g>
	<g>
		<path fill="#FFFFFF" d="M148.614,67.869c-0.649,0-1.243-0.43-1.425-1.087c-0.221-0.789,0.244-1.604,1.03-1.822l2.769-0.761    c10.289-2.826,19.171-5.268,29.296-11.092c0.709-0.413,1.616-0.165,2.025,0.541c0.407,0.711,0.164,1.617-0.547,2.026    c-10.452,6.014-19.506,8.5-29.988,11.383l-2.762,0.758C148.881,67.854,148.745,67.869,148.614,67.869z"/>
	</g>
	<g>
		<path fill="#FFFFFF" d="M154.583,72.01c-0.233,0-0.474-0.057-0.695-0.173c-5.815-3.104-10.127-7.933-13.277-11.456    c-1.662-1.858-3.933-4.401-4.721-4.401c-0.006,0-0.013,0-0.018,0.002c0,0-0.26,0.148-0.621,0.977    c-0.326,0.749-1.202,1.089-1.952,0.761s-1.092-1.203-0.764-1.951c0.264-0.602,1.063-2.426,2.872-2.715    c2.296-0.368,4.332,1.908,7.411,5.354c3.171,3.545,7.114,7.959,12.464,10.813c0.725,0.385,0.998,1.283,0.612,2.005    C155.626,71.725,155.114,72.01,154.583,72.01z"/>
	</g>
	<g>
		<path fill="#FFFFFF" d="M128.427,68.548c0,0-0.014,0-0.019,0c-11.169-0.127-19.527-2.349-24.524-3.677    c-1.206-0.32-2.154-0.573-2.856-0.719c-0.802-0.164-1.318-0.948-1.153-1.75c0.166-0.8,0.951-1.318,1.75-1.152    c0.784,0.162,1.771,0.424,3.02,0.756c4.862,1.291,13,3.455,23.798,3.578c0.82,0.009,1.477,0.683,1.466,1.501    C129.898,67.896,129.236,68.548,128.427,68.548z"/>
	</g>
	<g>
		<path fill="#FFFFFF" d="M153.702,93.635c-5.344-3.968-14.621-17.312-15.016-17.88l2.437-1.688    c0.093,0.135,9.394,13.511,14.347,17.189L153.702,93.635z"/>
	</g>
	<g>
		<path fill="#FFFFFF" d="M121.743,88.266l-2.218-1.965c1.69-1.907,10.712-11.633,11.094-12.046l2.175,2.016    C132.699,76.371,123.413,86.385,121.743,88.266z"/>
	</g>
</g>
</svg>