<?xml version="1.0" encoding="UTF-8"?>
<!-- Generator: Adobe Illustrator 21.0.2, SVG Export Plug-In . SVG Version: 6.00 Build 0)  -->
<svg version="1.1" id="Ebene_1" xmlns="http://www.w3.org/2000/svg" xmlns:xlink="http://www.w3.org/1999/xlink" x="0px" y="0px" viewBox="0 0 1024 370.8" style="enable-background:new 0 0 1024 370.8;" xml:space="preserve">
<style type="text/css">
	.st0{fill:#AC0E10;}
</style>
<g id="icomoon-ignore">
</g>
<path class="st0" d="M383.4,253.8c0,5.2-11.7,28.7-31.8,28.7c-9.8,0-28.2-12.8-28.2-36.4c0-9,1.5-21.5,2.7-28.6  c-22.4,44.7-51.2,101-92.4,101c-12.1,0-26.8-18.6-26.8-32c0-17.2,22.6-43.9,29.1-43.9s16.9,7.7,16.9,11.3c0,5-18.6,15.9-18.6,39.1  c0,1.7,0.9,2.7,2.1,2.7c12.4,0,38.5-28,38.5-49.3c0-16.5-56.5-19.1-56.5-49.2c0-19.5,30.1-57.9,57.7-57.9c10.2,0,23.6,8.6,23.6,16.9  c0,10.5-11.9,20.7-16.3,20.7c-3.6,0-7.5-5.4-15.7-5.4c-8.1,0-19.4,13.6-19.4,22.2c0,12.1,34.5,15.3,49.6,31.1  c21.7-41.2,42.9-86.2,51.9-86.2c11.1,0,21.6,6.9,21.6,11.7c0,10.9-21.4,50.8-21.4,85.4c0,9.2,1.3,18,6.9,18c9.4,0,15.5-15.1,18-15.1  C378.8,238.6,383.4,247.8,383.4,253.8L383.4,253.8z M86.4,355.3c-0.6,3.2-4,4-8.6,4c-8.4,0-19-3.4-24.9-12.4  c-5.6-8.5-17.6-113.3-50.4-130.3C1,215.7,0,214.9,0,212.8c0-7.5,15.9-17.8,23.9-17.8c17.6,0,37,44.4,47.9,106.7  c35.1-163.6,96.6-228,115.3-228c10.5,0,22.4,7.9,22.4,11.9c0,1.5-0.6,2.3-1.7,2.9C145,129,103.3,264.5,86.4,355.3L86.4,355.3z   M603.9,62c4,0,4.8,1.5,4.8,3.8c0,5-9,13-22.8,15.5c-32.4,6.1-92,20.9-145.2,44.6c-11.3,31-20.5,66.5-20.5,101.9  c0,31,9.2,37.3,15.3,41.2c1.2,0.8,1.5,1.7,1.5,3.1c0,2.7-8.2,14.9-19.2,14.9c-11.5,0-25.7-16.5-25.7-57.3c0-26.1,6.5-58.8,16.1-87.6  l-3.6,2.1c-1,0.6-1.9,1-2.7,1c-5.4,0-11.1-11.3-11.1-17c0-2.7,10.1-9.4,26.8-17.6C439.8,52.7,467.2,6.2,471.3,6.2  c8.6,0,17.2,8.2,17.2,17.2c0,5.4-17.6,32.6-35.6,72C494.9,79.2,552,63.3,603.9,62L603.9,62z M171.1,299.7c0,6.5,1.7,11.3,6.3,11.3  c8.6,0,15.5-13,18-13c4,0,7.1,9.4,7.1,15.7c0,6.5-14.4,25.7-33.5,25.7c-9.6,0-25.5-14-25.5-37.2c0-32.4,18.4-67.2,18.4-67.2  s-11.3,11.9-18.4,25.5c-0.8,1.5-1.5,2.1-2.7,2.1c-7.1,0-16.1-8.2-16.1-14.5c0-8.6,48.5-61.5,57.3-61.5c4.4,0,19.7,6.7,19.7,12.1  C201.7,210.4,171.1,259.3,171.1,299.7L171.1,299.7z M369.8,115.9c-5.9,0-14.5-5.2-14.5-12c0-8.8,12-27.1,22.5-27.1  c5.5,0,16.6,7.1,16.6,15.1C394.3,101.7,380.2,115.9,369.8,115.9L369.8,115.9z M201.5,162.4c-5.9,0-14.5-5.3-14.5-12  c0-8.8,11.6-27.1,22-27.1c5.5,0,16.6,7.1,16.6,15.1C225.7,148.1,212,162.4,201.5,162.4L201.5,162.4z M468.4,224.6h17.5v79.5h-17.5  V224.6z M505.3,224.6h17.5v79.5h-17.5V224.6z M542.3,224.6h17.5v79.5h-17.5V224.6z M728.1,198.7c-4-0.3-10.4-0.1-10.4-0.1v26.3  c0,0,5.6,0.2,9.1,0c10.5-0.4,16.7-5.4,16.2-13.7C742.5,203.2,736.8,199.5,728.1,198.7L728.1,198.7z M787,186.5  c-11.5-0.4-12.6,12.7-12.6,12.7h23.3C797.7,199.1,798.9,186.8,787,186.5z M741.6,177.7c0.2-7-5.2-10.5-10.6-10.9  c-5.2-0.3-13.3-0.2-13.3-0.2v24.1c0,0,4.1,0,7.1-0.1C733.4,190.4,741.3,187.6,741.6,177.7L741.6,177.7z M616.1,118.2v71.5h54.3v18.1  H579v-18.1H468.4v18.1H579V304h17.5v-79.1h19.6V304h17.5v-79.1h19.3V304h17.5v-35.8H1024v-150H616.1L616.1,118.2z M902.6,157.5  c3.9,0,7.2,3.2,7.2,7.2s-3.2,7.2-7.2,7.2s-7.2-3.2-7.2-7.2C895.4,160.7,898.6,157.5,902.6,157.5z M725.2,233.6h-27.7v-5.9l9.1-1.8  v-60.1c0,0-1.7-0.2-5-0.6c-2.5-0.4-4.1-0.8-4.1-0.8v-6.1c0,0,4.9,0.1,10.5,0.2s10.5-0.4,17.4-0.4c12.7,0,26.6,1.8,27.3,17.8  c0.6,13.9-13.2,17.9-13.2,17.9s15.5,2.1,15,18.5C753.5,235.1,725.2,233.6,725.2,233.6L725.2,233.6z M808.3,206.6h-34.7  c0,0-1.9,19.9,16.2,19.6c9.2-0.2,16.1-3.3,16.1-3.3v8.3c0,0-8.4,3.1-14.9,3.4c-7.1,0.3-14.4-1.4-17.9-3.8  c-8.7-5.8-10.2-17.3-10.1-24c0.1-8.2,2.4-27.7,24.2-28.2C811.7,178.1,808.3,206.6,808.3,206.6L808.3,206.6z M850.3,189.4  c0,0-7.9-1.6-11.8,2.4c-5.4,5.8-4.9,17.3-4.9,17.3v24.4h-10.5v-46.1l-9-1.2v-5.8c0,0,5.5-0.4,9-0.5c4-0.1,10.2-0.1,10.2-0.1v10.6  c0,0,1.3-6.3,5.8-9c4.8-2.9,11.2-2.1,11.2-2.1V189.4L850.3,189.4z M880.7,233.6h-28.8v-5.9l9-1.5V162c0,0-2.6-0.4-4.2-0.6  c-1.8-0.2-4.7-0.5-4.7-0.5v-5.5c0,0,6.5-0.4,10.7-0.5c3.6-0.1,9.1,0,9.1,0v71.4l9,1.5L880.7,233.6L880.7,233.6z M917.8,233.6h-29.3  v-5.9l9.2-1.5v-38.6l-9.2-1.2v-5.7c3.6-0.3,5.4-0.5,9.2-0.6c4.6-0.2,8.1-0.3,10.4-0.2v46.4l9.6,1.5L917.8,233.6L917.8,233.6z   M978.1,195.2v38.4h-10.7v-37.2c0,0,0.5-10.2-8.7-9.6c-7.9,0.5-11.8,6.1-13.5,11.1c-1.7,5.1-1.3,10-1.3,10v25.8h-10.6v-46.1l-9-1.1  v-5.7c0,0,4.1-0.4,9.9-0.7c6-0.3,9.7-0.2,9.7-0.2v9.7c0,0,3.4-11,20.8-10.3C979,179.9,978.1,195.2,978.1,195.2L978.1,195.2z   M569.6,179.4c7.1,0,12.9-5.8,12.9-12.9s-5.8-12.8-12.9-12.8c-7.1,0-12.9,5.8-12.9,12.8C556.8,173.6,562.5,179.4,569.6,179.4z"/>
</svg>